<?xml version="1.0" encoding="UTF-8" standalone="no"?>
<!DOCTYPE svg PUBLIC "-//W3C//DTD SVG 1.1//EN" "http://www.w3.org/Graphics/SVG/1.1/DTD/svg11.dtd">
<svg width="100%" height="100%" viewBox="0 0 43 43" version="1.1" xmlns="http://www.w3.org/2000/svg" xmlns:xlink="http://www.w3.org/1999/xlink" xml:space="preserve" xmlns:serif="http://www.serif.com/" style="fill-rule:evenodd;clip-rule:evenodd;stroke-linejoin:round;stroke-miterlimit:2;">
    <g transform="matrix(1,0,0,1,-2.50872,5.49127)">
        <path d="M25.417,-4.621C25.846,-5.781 27.488,-5.781 27.918,-4.621L32.217,6.996C32.352,7.361 32.639,7.649 33.004,7.784L44.621,12.083C45.782,12.512 45.782,14.154 44.621,14.584L33.004,18.883C32.639,19.018 32.352,19.305 32.217,19.67L27.918,31.287C27.488,32.448 25.846,32.448 25.417,31.287L21.118,19.67C20.983,19.305 20.695,19.018 20.33,18.883L8.713,14.584C7.553,14.154 7.553,12.512 8.713,12.083L20.33,7.784C20.695,7.649 20.983,7.361 21.118,6.996L25.417,-4.621Z" style="fill:rgb(242,240,255);fill-rule:nonzero;"/>
    </g>
    <g transform="matrix(1,0,0,1,-2.50872,5.49127)">
        <path d="M9.416,22.046C9.846,20.886 11.488,20.886 11.917,22.046L13.335,25.878C13.47,26.243 13.758,26.53 14.123,26.666L17.954,28.083C19.115,28.513 19.115,30.155 17.954,30.584L14.123,32.002C13.758,32.137 13.47,32.425 13.335,32.79L11.917,36.621C11.488,37.782 9.846,37.782 9.416,36.621L7.998,32.79C7.863,32.425 7.576,32.137 7.211,32.002L3.379,30.584C2.219,30.155 2.219,28.513 3.379,28.083L7.211,26.666C7.576,26.53 7.863,26.243 7.998,25.878L9.416,22.046Z" style="fill:rgb(242,240,255);fill-rule:nonzero;"/>
    </g>
</svg>
