<?xml version="1.0" encoding="UTF-8" standalone="no"?>
<!DOCTYPE svg PUBLIC "-//W3C//DTD SVG 1.1//EN" "http://www.w3.org/Graphics/SVG/1.1/DTD/svg11.dtd">
<svg width="100%" height="100%" viewBox="0 0 20 20" version="1.1" xmlns="http://www.w3.org/2000/svg" xmlns:xlink="http://www.w3.org/1999/xlink" xml:space="preserve" xmlns:serif="http://www.serif.com/" style="fill-rule:evenodd;clip-rule:evenodd;stroke-linejoin:round;stroke-miterlimit:2;">
    <g transform="matrix(1,0,0,1,-2,-2)">
        <circle cx="12" cy="12" r="8" style="fill:white;"/>
    </g>
    <g transform="matrix(1,0,0,1,-2,-2)">
        <path d="M12,22C6.477,22 2,17.523 2,12C2,6.477 6.477,2 12,2C17.523,2 22,6.477 22,12C22,17.523 17.523,22 12,22ZM16.984,14.276C16.934,14.095 16.772,13.968 16.589,13.968C16.419,13.968 16.285,14.046 16.219,14.174C16.167,14.247 16.122,14.319 16.077,14.39C16.042,14.445 16.008,14.499 15.973,14.55C15.371,15.428 14.899,15.818 13.779,16.363C13.264,16.606 12.682,16.742 12.128,16.745C10.438,16.745 9.461,15.371 9.138,14.195C8.577,12.151 9.502,9.612 10.707,8.161C11.416,7.305 12.187,6.833 12.878,6.83C13.189,6.83 13.629,6.988 13.862,7.336C14.213,7.86 14.338,8.327 13.933,9.166C13.839,9.362 13.949,9.58 14.111,9.662C14.364,9.788 14.691,9.613 15.065,9.118C15.483,8.562 15.511,7.691 15.127,7.134C14.646,6.434 13.709,6 12.664,6C11.938,6.003 11.199,6.203 10.582,6.563C7.938,8.114 6.424,11.694 7.206,14.543C7.482,15.551 8.089,16.461 8.872,17.042C9.178,17.267 10.281,18 11.614,18L11.629,18C12.979,17.995 14.01,17.459 14.67,17.057C15.39,16.611 16.021,15.996 16.599,15.179C16.646,15.112 16.692,15.041 16.738,14.971C16.782,14.903 16.826,14.835 16.871,14.772C16.984,14.616 17.026,14.43 16.984,14.276Z" style="fill:rgb(0,196,204);fill-rule:nonzero;"/>
    </g>
</svg>
